<?xml version="1.0" encoding="UTF-8"?><svg id="Calque_1" xmlns="http://www.w3.org/2000/svg" viewBox="0 0 200 200"><defs><style>.cls-1{fill:#fff;}</style></defs><path class="cls-1" d="m141.56,80.84c-3.96-3.96-10.37-3.96-14.33,0-3.96,3.96-3.96,10.37,0,14.33,15.01,15.01,15.01,39.42,0,54.43-15.01,15.01-39.42,15.01-54.43,0-3.96-3.96-10.37-3.96-14.33,0-3.96,3.96-3.96,10.37,0,14.33,11.45,11.45,26.5,17.18,41.55,17.18s30.09-5.73,41.55-17.18c22.91-22.91,22.91-60.18,0-83.09Z"/><path class="cls-1" d="m61.53,125.7v-12.94l8.39-12.67,26.9,34.93c2,2.59,5,3.95,8.04,3.95,2.16,0,4.33-.69,6.18-2.11,4.43-3.41,5.26-9.78,1.85-14.21l-31.13-40.42,31.54-47.61c3.09-4.67,1.82-10.95-2.85-14.05-4.67-3.09-10.95-1.82-14.05,2.85l-34.87,52.64V29.02c0-5.6-4.54-10.13-10.13-10.13s-10.13,4.54-10.13,10.13v96.68c0,5.6,4.54,10.13,10.13,10.13s10.13-4.54,10.13-10.13Z"/></svg>