<?xml version="1.0" encoding="UTF-8"?><svg id="Calque_1" xmlns="http://www.w3.org/2000/svg" viewBox="0 0 300 200"><path d="m269.61,170.63h-60.88c-3.5,0-6.34-2.83-6.34-6.33s2.84-6.34,6.34-6.34h60.88c3.5,0,6.34,2.83,6.34,6.33s-2.84,6.34-6.34,6.34Z"/><path d="m148.92,42.16H30.31c-3.5,0-6.34-2.84-6.34-6.34s2.84-6.34,6.34-6.34h118.62c3.5,0,6.34,2.84,6.34,6.34s-2.84,6.34-6.34,6.34Z"/><g><path d="m78.53,61.78c-.08-1.54-.65-2.84-1.71-3.9-1.06-1.06-2.24-1.85-3.53-2.38-1.3-.53-2.72-.57-4.27-.12-1.54.45-2.8,1.44-3.78,2.99l-26.7,39.74v-35.72c0-1.79-.51-3.31-1.52-4.57-1.02-1.26-2.24-2.03-3.66-2.32-1.42-.28-2.85-.28-4.27,0-1.42.29-2.62,1.06-3.6,2.32-.98,1.26-1.46,2.78-1.46,4.57v75.58c0,2.19.75,3.94,2.26,5.24,1.5,1.3,3.17,1.95,5,1.95s3.49-.65,5-1.95c1.5-1.3,2.26-3.05,2.26-5.24,0-1.79-.02-3.6-.06-5.42-.04-1.83-.08-3.07-.12-3.72-.04-.65-.02-1.5.06-2.56.08-1.06.14-1.66.18-1.83.04-.16.28-.69.73-1.58.45-.89.81-1.52,1.1-1.89.28-.37.89-1.22,1.83-2.56.93-1.34,1.81-2.58,2.62-3.72l20.48,27.55c1.14,1.46,2.48,2.38,4.02,2.74,1.54.37,2.94.26,4.21-.3,1.26-.57,2.4-1.42,3.41-2.56,1.02-1.14,1.52-2.48,1.52-4.02s-.49-3.05-1.46-4.51l-23.65-31.69,23.77-35.47c.98-1.54,1.42-3.09,1.34-4.63Z"/><path d="m247.13,64.64c-2.6-2.8-6.01-5.06-10.24-6.77-4.23-1.71-8.9-2.56-14.02-2.56-.81,0-2.15-.04-4.02-.12-1.87-.08-3.41-.14-4.63-.18-1.22-.04-2.64.04-4.27.24-1.63.2-2.93.55-3.9,1.04-.98.49-1.83,1.26-2.56,2.32-.73,1.06-1.1,2.36-1.1,3.9v75.58c0,2.28.75,4.04,2.26,5.3,1.5,1.26,3.17,1.89,5,1.89s3.49-.63,5-1.89c1.5-1.26,2.26-3.03,2.26-5.3v-21.82c3.17.08,5.61,0,7.31-.24,5.12-.16,9.71-1.16,13.77-2.99,4.06-1.83,7.33-4.16,9.81-7.01,2.48-2.84,4.39-6.09,5.73-9.75,1.34-3.66,1.97-7.35,1.89-11.09-.08-3.74-.83-7.39-2.26-10.97-1.42-3.58-3.43-6.77-6.03-9.57Zm-8.17,29.32c-3.17,5.45-8.45,8.01-15.85,7.68-1.46-.16-3.54-.2-6.22-.12v-31.57c2.19.08,4.02.04,5.49-.12,7.88-.32,13.41,2.26,16.58,7.74,3.17,5.49,3.17,10.95,0,16.4Z"/><path d="m275.96,61.32c0-.1.02-.21.02-.31,0-26.26-21.37-47.63-47.63-47.63s-47.42,21.17-47.62,47.26c-.11.55-.17,1.13-.17,1.75v29.01c0,2.36-.47,4.43-1.4,6.22-.93,1.79-2.13,3.15-3.6,4.08-1.46.94-3.11,1.63-4.94,2.07-1.83.45-3.64.45-5.42,0-1.79-.45-3.41-1.14-4.88-2.07-1.46-.93-2.66-2.3-3.6-4.08-.94-1.79-1.4-3.86-1.4-6.22v-29.01c0-2.27-.75-4.04-2.26-5.3-1.5-1.26-3.17-1.89-5-1.89s-3.5.63-5,1.89c-1.5,1.26-2.26,3.03-2.26,5.3v29.01c0,6.26,1.87,11.84,5.61,16.76,3.74,4.92,8.49,8.11,14.26,9.57v20.24c0,.63.07,1.22.19,1.78-.02.24-.04.49-.04.74,0,17.5-14.24,31.74-31.74,31.74s-31.74-14.24-31.74-31.74c0-.23-.01-.45-.03-.67l3.02-10.37h23.77l3.05,10.48c.49,1.79,1.38,3.13,2.68,4.02,1.3.9,2.66,1.28,4.08,1.16,1.42-.12,2.76-.51,4.02-1.16,1.26-.65,2.19-1.71,2.8-3.17.61-1.46.67-3.09.18-4.88l-21.45-74.48c-.49-2.19-1.48-3.82-2.99-4.88-1.5-1.06-3.05-1.52-4.63-1.4-1.58.12-3.07.75-4.45,1.89-1.38,1.14-2.19,2.6-2.44,4.39l-21.45,74.48c-.3,1-.4,1.94-.34,2.82-.14.57-.23,1.15-.23,1.76,0,25.44,20.7,46.14,46.14,46.14s46.14-20.7,46.14-46.14c0-.47-.05-.93-.13-1.38.05-.37.08-.74.08-1.14l-.12-20.48c5.61-1.54,10.28-4.53,14.02-8.96,3.74-4.43,5.69-9.81,5.85-16.15l.12-29.99c0-.12-.01-.24-.02-.36.05-.34.08-.67.08-1.02,0-18.32,14.91-33.23,33.23-33.23s33.23,14.91,33.23,33.23c0,.11.01.21.02.31-.04.34-.07.7-.07,1.07v75.58c0,2.19.75,3.94,2.26,5.24,1.5,1.3,3.17,1.95,5,1.95s3.49-.65,5-1.95c1.5-1.3,2.26-3.05,2.26-5.24V62.39c0-.37-.03-.72-.07-1.07Zm-163.67,27.03l7.68,26.7h-15.48l7.8-26.7Z"/></g></svg>